<svg xmlns="http://www.w3.org/2000/svg" width="33.638" height="33.638" viewBox="0 0 33.638 33.638">
  <path id="Icon_awesome-facebook-square" data-name="Icon awesome-facebook-square" d="M30.034,2.25H3.6A3.6,3.6,0,0,0,0,5.854v26.43a3.6,3.6,0,0,0,3.6,3.6H13.91V24.452H9.179V19.069h4.73v-4.1c0-4.667,2.778-7.244,7.033-7.244a28.658,28.658,0,0,1,4.169.363v4.58H22.764a2.692,2.692,0,0,0-3.035,2.908v3.5h5.164l-.826,5.383H19.729V35.888H30.034a3.6,3.6,0,0,0,3.6-3.6V5.854a3.6,3.6,0,0,0-3.6-3.6Z" transform="translate(0 -2.25)" fill="#f1eeef"/>
</svg>
