<svg xmlns="http://www.w3.org/2000/svg" width="683.624" height="598" viewBox="0 0 683.624 598">
  <g id="Group_5" data-name="Group 5" transform="translate(0 0)">
    <path id="fc914514-1042-4f3e-9382-2a2bd3a05a2f" d="M279.913,131.32a2.564,2.564,0,0,0-2.561,2.561v87.355a2.564,2.564,0,0,0,2.561,2.561H577.78a2.564,2.564,0,0,0,2.561-2.561V133.881a2.564,2.564,0,0,0-2.561-2.561Z" transform="translate(-238.565 -131.32)" fill="#d2d2d2"/>
    <path id="fc60a940-5b5f-47e1-886f-8b9349204f05" d="M284.185,217.8H574.337V138.153H284.185Z" transform="translate(-238.981 -131.736)" fill="#fff"/>
    <path id="b37dca77-34e7-4938-924b-74ea49a8e34b" d="M553.856,205.36a4.243,4.243,0,1,0,0,8.486h16.97a4.243,4.243,0,0,0,0-8.486Z" transform="translate(-255.124 -135.823)" fill="#474555"/>
    <rect id="a114a1b8-363a-4115-bcea-0275bda15cb1" width="195.902" height="1.117" transform="translate(124.044 61.308)" fill="#e6e6e6"/>
    <circle id="fd059875-cd6f-429e-81eb-c199f1a3d666" cx="24.711" cy="24.711" r="24.711" transform="translate(58.384 21.528)" fill="#f84141"/>
    <path id="ad693766-5e26-437f-8d3d-58ce33ee9e84" d="M368.422,188.625l-.619-.929,20.357-13.571,13.959,6.7L422.2,168l.271.116,39.671,16.923,31.807-15.625,30.887,12.522,38.81,7.889.74.836-39.328-7.43-31.065-12.6-31.819,15.63L422.3,169.256,402.195,182.1l-13.947-6.694Z" transform="translate(-244.066 -133.551)" fill="#3f3d56"/>
    <path id="ff424c2d-4733-4249-9b35-4eb43ebe2556" d="M371.758,205.983a3.628,3.628,0,1,0,0,7.256H409.71a3.628,3.628,0,0,0,.116-7.255H371.758Z" transform="translate(-244.086 -135.861)" fill="#f1eeef"/>
    <path id="Path_24" data-name="Path 24" d="M333.8,179.526a1.482,1.482,0,0,0-2.1,0h0l-6.362,6.362V170.2a1.482,1.482,0,1,0-2.964,0v15.688l-6.362-6.362a1.482,1.482,0,1,0-2.1,2.09l.005.005,8.892,8.892a1.482,1.482,0,0,0,2.1,0l8.892-8.892A1.482,1.482,0,0,0,333.8,179.526Z" transform="translate(-240.763 -133.595)" fill="#fff"/>
    <path id="ebf544e0-cedc-491d-9ace-ce79788cc3b4" d="M404.688,280.283a2.564,2.564,0,0,0-2.561,2.561V370.2a2.564,2.564,0,0,0,2.561,2.561H702.556a2.564,2.564,0,0,0,2.561-2.561V282.844a2.564,2.564,0,0,0-2.561-2.561Z" transform="translate(-246.154 -140.38)" fill="#d2d2d2"/>
    <path id="f05ecdaf-6a8f-49c4-b8a7-f7e5ce9efcf7" d="M408.961,366.759H699.114V287.116H408.961Z" transform="translate(-246.57 -140.795)" fill="#fff"/>
    <path id="a9f7bc9d-00a6-4157-bba1-ffc7ec111a68" d="M678.632,354.325a4.243,4.243,0,1,0,0,8.485H695.6a4.243,4.243,0,0,0,0-8.486Z" transform="translate(-262.713 -144.883)" fill="#474555"/>
    <rect id="a15d3d52-efbb-4636-8d15-228635c5d6e5" width="195.902" height="1.117" transform="translate(241.231 201.212)" fill="#e6e6e6"/>
    <circle id="e4ee77d8-efe6-4a2a-a3ed-71b8f3ee957e" cx="24.711" cy="24.711" r="24.711" transform="translate(175.57 161.432)" fill="#1ad672"/>
    <path id="fc1c89ac-2b6e-4831-b128-0ac2ab1fa850" d="M493.2,336.266l-.62-.929,20.357-13.571,13.96,6.7,20.079-12.828.271.116,39.67,16.923,31.808-15.625,30.887,12.521,38.81-34.374.74.836L649.83,330.865l-31.065-12.594L586.946,333.9l-39.87-17.008L526.97,329.738l-13.943-6.692Z" transform="translate(-251.655 -141.287)" fill="#3f3d56"/>
    <path id="bd690ac4-3df0-4871-95d5-adaa934b7c24" d="M496.53,354.946a3.628,3.628,0,0,0-.118,7.255h38.07a3.628,3.628,0,1,0,0-7.256Z" transform="translate(-251.671 -144.921)" fill="#f1eeef"/>
    <path id="Path_25" data-name="Path 25" d="M438.693,329.1a1.482,1.482,0,0,0,2.1,0h0l6.362-6.362V338.43a1.482,1.482,0,0,0,2.964,0V322.742l6.362,6.362a1.482,1.482,0,1,0,2.1-2.1l-8.892-8.892a1.482,1.482,0,0,0-2.1,0l-8.892,8.892a1.482,1.482,0,0,0,0,2.1Z" transform="translate(-248.351 -142.654)" fill="#fff"/>
    <path id="b1a491a7-739b-4f1f-bff8-dbf70f6892c8" d="M238.614,429.247a2.564,2.564,0,0,0-2.561,2.561v87.355a2.564,2.564,0,0,0,2.561,2.561H536.481a2.564,2.564,0,0,0,2.561-2.561V431.808a2.564,2.564,0,0,0-2.561-2.561Z" transform="translate(-236.053 -149.44)" fill="#d2d2d2"/>
    <path id="acd48b1a-d10a-4276-b388-f016adebff0c" d="M242.887,515.723H533.04V436.08H242.887Z" transform="translate(-236.469 -149.855)" fill="#fff"/>
    <path id="bed21912-b6c9-41df-a59b-963435bac71a" d="M512.557,503.288a4.243,4.243,0,0,0,0,8.486h16.97a4.243,4.243,0,1,0,0-8.485Z" transform="translate(-252.612 -153.943)" fill="#474555"/>
    <rect id="a26455fb-834b-4368-afb2-80d86a75d46a" width="195.902" height="1.117" transform="translate(85.257 341.116)" fill="#e6e6e6"/>
    <circle id="f17c58cd-37a1-42e1-9e5f-26c2ec8825b4" cx="24.711" cy="24.711" r="24.711" transform="translate(19.597 301.335)" fill="#1ad672"/>
    <path id="b803193f-4714-40c6-8606-08b9dea6d22d" d="M327.121,486.446l-.619-.929,20.357-13.572,13.959,6.7,20.08-12.832,39.941,17.038,31.807-15.625,30.883,12.526,38.81-15.59.74.836-39.323,16.05L452.69,468.453l-31.819,15.63L381,467.075,360.9,479.921l-13.947-6.694Z" transform="translate(-241.554 -151.563)" fill="#3f3d56"/>
    <path id="b19b31b4-3a52-4fc9-8ed4-dc6729deb0ed" d="M330.459,503.909a3.628,3.628,0,1,0,0,7.256h37.952a3.628,3.628,0,1,0,.118-7.255h-38.07Z" transform="translate(-241.574 -153.981)" fill="#f1eeef"/>
    <path id="Path_26" data-name="Path 26" d="M272.619,478.067a1.482,1.482,0,0,0,2.1,0h0l6.362-6.362v15.688a1.482,1.482,0,0,0,2.964.01v-15.7l6.362,6.362a1.482,1.482,0,0,0,2.1-2.09l-.005-.005-8.892-8.892a1.482,1.482,0,0,0-2.1,0l-8.892,8.892a1.482,1.482,0,0,0,0,2.1Z" transform="translate(-238.251 -151.714)" fill="#fff"/>
    <path id="Path_27" data-name="Path 27" d="M649.054,618.391h-14.3l-6.8-55.165h21.108Z" transform="translate(-38.191 -34.255)" fill="#ffb7b7"/>
    <path id="Path_28" data-name="Path 28" d="M887.372,766.845l-46.116,0v-.583A17.95,17.95,0,0,1,859.2,748.31h28.168Z" transform="translate(-272.861 -168.845)" fill="#202020"/>
    <path id="Path_29" data-name="Path 29" d="M593.158,618.391h-14.3l-6.8-55.165h21.109Z" transform="translate(-34.792 -34.255)" fill="#ffb7b7"/>
    <path id="Path_30" data-name="Path 30" d="M831.476,766.845l-46.116,0v-.583a17.95,17.95,0,0,1,17.948-17.949h28.168Z" transform="translate(-269.462 -168.845)" fill="#202020"/>
    <path id="Path_31" data-name="Path 31" d="M800.71,559.607a10.939,10.939,0,0,0,.207-16.772l7.774-23.758L795.4,510.832l-10.506,33.7a11,11,0,0,0,15.811,15.071Z" transform="translate(-269.3 -154.402)" fill="#ffb7b7"/>
    <path id="Path_32" data-name="Path 32" d="M816.112,545.445s-13.349,72.262-13.183,86.288c.2,16.927,7.732,89.469,7.732,89.469l19.175-4.794,3.624-84.081,15.166-53.663,5.833,68.828,5.855,72.4H882.56l4.982-181.64-72.629-2.4Z" transform="translate(-270.53 -155.924)" fill="#2f2e41"/>
    <path id="Path_33" data-name="Path 33" d="M883.751,391.025l-38.35,1.2L821.432,540.831s50.934,23.37,72.506,6.591S883.751,391.025,883.751,391.025Z" transform="translate(-271.656 -147.115)" fill="#d2d2d2"/>
    <path id="Path_34" data-name="Path 34" d="M849.281,422.2l-32.359,185.76-20.374-5.992,14.381-67.113,7.191-67.113-1.2-67.113,25.167-10.786,7.191-8.389S863.662,399.432,849.281,422.2Z" transform="translate(-270.142 -146.533)" fill="#2f2e41"/>
    <path id="Path_35" data-name="Path 35" d="M870.548,417.668l2.4,195.088,49.136-8.389L918.487,423.4l4.794-25.167-23.969-10.786-9.706-5.992S868.151,387.966,870.548,417.668Z" transform="translate(-274.632 -146.533)" fill="#2f2e41"/>
    <path id="Path_36" data-name="Path 36" d="M591.112,274.147l-10.786-3.6-15.58,69.51-13.183,55.129,19.175,3.6,17.977-59.923Z" transform="translate(-33.546 -16.455)" fill="#2f2e41"/>
    <path id="Path_37" data-name="Path 37" d="M944.254,572.028a10.939,10.939,0,0,1-.207-16.772L936.273,531.5l13.286-8.245,10.507,33.705a11,11,0,0,1-15.812,15.071Z" transform="translate(-278.64 -155.157)" fill="#ffb7b7"/>
    <path id="Path_38" data-name="Path 38" d="M679.625,271.663l10.786-3.6,15.58,69.51,14.35,69.128-21.582,3.175-16.736-73.5Z" transform="translate(-41.334 -16.304)" fill="#2f2e41"/>
    <circle id="Ellipse_1" data-name="Ellipse 1" cx="26.637" cy="26.637" r="26.637" transform="translate(559.4 191.15) rotate(-28.663)" fill="#ffb7b7"/>
    <path id="Path_40" data-name="Path 40" d="M858.959,308.919c25.464-7.343,32.693,13.762,32.693,13.762,12.274,8.143,4.59,18.353,4.59,18.353,3.1.688-3.1,18.812-5.16,18.354-1.1-.245-3.935,3.137-6.338,6.344a12.718,12.718,0,0,0-2.455.236l4.662-17.248s-15.715-2.408-20.533-9.978c-4.61-7.243-19.785-9.529-24.1-4.692a10.917,10.917,0,0,0-1.54-3.911,7.811,7.811,0,0,0-2.264-2.27C842.327,311.642,858.959,308.919,858.959,308.919Z" transform="translate(-272.694 -142.027)" fill="#202020"/>
  </g>
</svg>
