<svg xmlns="http://www.w3.org/2000/svg" width="33.638" height="33.638" viewBox="0 0 33.638 33.638">
  <g id="Group_33" data-name="Group 33" transform="translate(-1683.492 -76.038)">
    <path id="Path_46" data-name="Path 46" d="M25.727,13.2a2.1,2.1,0,1,1,2.1-2.1A2.1,2.1,0,0,1,25.727,13.2Z" transform="translate(1683.694 71.843)" fill="#f1eeef"/>
    <path id="Path_47" data-name="Path 47" d="M19.66,14.053a5.606,5.606,0,1,1-5.606,5.606,5.612,5.612,0,0,1,5.606-5.606m0-2.8a8.41,8.41,0,1,0,8.41,8.41,8.412,8.412,0,0,0-8.41-8.41Z" transform="translate(1680.651 73.197)" fill="#f1eeef"/>
    <path id="Path_45" data-name="Path 45" d="M28.327,7.3a7.029,7.029,0,0,1,7.008,7.008V28.327a7.029,7.029,0,0,1-7.008,7.008H14.311A7.029,7.029,0,0,1,7.3,28.327V14.311A7.029,7.029,0,0,1,14.311,7.3H28.327m0-2.8H14.311A9.84,9.84,0,0,0,4.5,14.311V28.327a9.84,9.84,0,0,0,9.811,9.811H28.327a9.84,9.84,0,0,0,9.811-9.811V14.311A9.84,9.84,0,0,0,28.327,4.5Z" transform="translate(1678.992 71.538)" fill="#f1eeef"/>
  </g>
</svg>
