<svg xmlns="http://www.w3.org/2000/svg" width="33.638" height="33.638" viewBox="0 0 33.638 33.638">
  <path id="Icon_ionic-logo-linkedin" data-name="Icon ionic-logo-linkedin" d="M35.448,4.5H7.374A2.744,2.744,0,0,0,4.5,7.12V35.255a2.96,2.96,0,0,0,2.874,2.883H35.439a2.81,2.81,0,0,0,2.7-2.883V7.12A2.579,2.579,0,0,0,35.448,4.5ZM14.927,32.539H10.108V17.556h4.819ZM12.684,15.277h-.035a2.473,2.473,0,0,1-2.541-2.585,2.489,2.489,0,0,1,2.6-2.585,2.482,2.482,0,0,1,2.576,2.585A2.488,2.488,0,0,1,12.684,15.277ZM32.539,32.539H27.72V24.346c0-1.963-.7-3.3-2.445-3.3A2.637,2.637,0,0,0,22.8,22.822,3.245,3.245,0,0,0,22.638,24v8.534H17.818V17.556h4.819v2.085a4.878,4.878,0,0,1,4.346-2.436c3.163,0,5.555,2.085,5.555,6.58v8.753Z" transform="translate(-4.5 -4.5)" fill="#f1eeef"/>
</svg>