<svg xmlns="http://www.w3.org/2000/svg" xmlns:xlink="http://www.w3.org/1999/xlink" width="1166.466" height="464.585" viewBox="0 0 1166.466 464.585">
  <defs>
    <linearGradient id="linear-gradient" x1="0.5" y1="1" x2="0.5" gradientUnits="objectBoundingBox">
      <stop offset="0" stop-color="gray" stop-opacity="0.251"/>
      <stop offset="0.54" stop-color="gray" stop-opacity="0.122"/>
      <stop offset="1" stop-color="gray" stop-opacity="0.102"/>
    </linearGradient>
    <linearGradient id="linear-gradient-2" x1="0.5" y1="1" x2="0.5" y2="-0.001" xlink:href="#linear-gradient"/>
  </defs>
  <g id="Group_17" data-name="Group 17" transform="translate(0 -138.22)">
    <ellipse id="Ellipse_21" data-name="Ellipse 21" cx="583.233" cy="9.43" rx="583.233" ry="9.43" transform="translate(0 506.519)" fill="#1a4fd6" opacity="0.1"/>
    <ellipse id="Ellipse_22" data-name="Ellipse 22" cx="583.233" cy="9.43" rx="583.233" ry="9.43" transform="translate(0 583.946)" fill="#1a4fd6" opacity="0.1"/>
    <ellipse id="Ellipse_23" data-name="Ellipse 23" cx="583.233" cy="9.43" rx="583.233" ry="9.43" transform="translate(0 344.927)" fill="#1a4fd6" opacity="0.1"/>
    <ellipse id="Ellipse_24" data-name="Ellipse 24" cx="583.233" cy="9.43" rx="583.233" ry="9.43" transform="translate(0 425.718)" fill="#1a4fd6" opacity="0.1"/>
    <circle id="Ellipse_25" data-name="Ellipse 25" cx="106.387" cy="106.387" r="106.387" transform="translate(723.475 138.22)" fill="#474555"/>
    <path id="Path_103" data-name="Path 103" d="M880.328,431.177c-3.7-3.7-12.612-9.291-17.029-11.377-5.1-2.448-6.971-2.405-10.579.2-3,2.129-4.949,4.183-8.4,3.427s-10.281-5.907-16.89-12.495-11.739-13.378-12.474-16.88,1.288-5.407,3.438-8.408c2.6-3.608,2.671-5.481.2-10.579-2.129-4.417-7.652-13.3-11.388-17.029s-4.545-2.906-6.588-2.129a38.107,38.107,0,0,0-6.034,3.193c-3.7,2.48-5.779,4.544-7.237,7.652s-3.108,8.876,5.375,23.979A133.77,133.77,0,0,0,816.247,422.1h0a133.971,133.971,0,0,0,31.471,23.563c15.092,8.514,20.871,6.822,23.979,5.375s5.172-3.5,7.642-7.237a37.6,37.6,0,0,0,3.193-6.035C883.234,435.721,884.064,434.891,880.328,431.177Z" transform="translate(-4.798 -159.133)" fill="#1a4fd6"/>
    <path id="Path_104" data-name="Path 104" d="M838.163,300.86A106.429,106.429,0,1,0,944.539,407.254,106.429,106.429,0,0,0,838.163,300.86Zm0,198.618A92.242,92.242,0,1,1,930.4,407.236a92.242,92.242,0,0,1-92.242,92.242Z" transform="translate(-8.301 -162.629)" opacity="0.1"/>
    <circle id="Ellipse_26" data-name="Ellipse 26" cx="106.387" cy="106.387" r="106.387" transform="translate(479.06 299.812)" fill="#474555"/>
    <path id="Path_105" data-name="Path 105" d="M666.3,522.454,634.45,554.861a.575.575,0,0,0,0,.83l22.35,23.766a3.846,3.846,0,1,1-5.438,5.438l-22.233-23.68a.607.607,0,0,0-.851,0l-5.417,5.47a23.808,23.808,0,0,1-17.029,7.163,24.33,24.33,0,0,1-17.327-7.365l-5.2-5.321a.607.607,0,0,0-.851,0l-22.18,23.627a3.846,3.846,0,1,1-5.438-5.439l22.265-23.712a.639.639,0,0,0,0-.83L545.24,522.4a.585.585,0,0,0-1,.415v64.847a9.494,9.494,0,0,0,9.462,9.462H657.864a9.493,9.493,0,0,0,9.461-9.462V522.869a.585.585,0,0,0-1.022-.415Z" transform="translate(-20.352 -148.397)" fill="#1a4fd6"/>
    <path id="Path_106" data-name="Path 106" d="M605.58,566.771a16.113,16.113,0,0,0,11.622-4.789l46.393-47.223a9.259,9.259,0,0,0-5.854-2.129H553.5a9.2,9.2,0,0,0-5.854,2.129l46.4,47.223A16.05,16.05,0,0,0,605.58,566.771Z" transform="translate(-20.133 -149.014)" fill="#1a4fd6"/>
    <path id="Path_107" data-name="Path 107" d="M607.253,452.69A106.429,106.429,0,1,0,713.629,559.084,106.429,106.429,0,0,0,607.253,452.69Zm0,198.618a92.242,92.242,0,1,1,92.242-92.242,92.242,92.242,0,0,1-92.242,92.242Z" transform="translate(-23.147 -152.868)" opacity="0.1"/>
    <circle id="Ellipse_27" data-name="Ellipse 27" cx="106.387" cy="106.387" r="106.387" transform="translate(226.577 220.362)" fill="#474555"/>
    <path id="Path_108" data-name="Path 108" d="M367.412,430.16,325,528.011l3.959,3.959,38.464-16.965,38.464,16.965,3.959-3.959Z" transform="translate(-34.448 -154.316)" fill="#1a4fd6"/>
    <path id="Path_109" data-name="Path 109" d="M371.283,378a106.367,106.367,0,1,0,.018,0Zm0,198.618a75.905,75.905,0,1,1,.011.043Z" transform="translate(-38.318 -157.67)" opacity="0.1"/>
    <path id="Path_110" data-name="Path 110" d="M844,606.672q-1.447-3.533-2.969-7.046a20.914,20.914,0,0,0-3.629-6.269,6.642,6.642,0,0,0-2.129-1.6,9.079,9.079,0,0,0-2.778-.554,22.173,22.173,0,0,0-4.364-.117c-.564-.17-1.2-.394-1.831-.649a15.2,15.2,0,0,0,11.324-14.1c0-.213,0-.436,0-.649a15.166,15.166,0,0,0-15.1-15.23,14.9,14.9,0,0,0-7.929,2.267,14.23,14.23,0,0,0-15.964,7.695,17.593,17.593,0,0,0-5.428,13.091c0,.224,0,.458,0,.671.277,8.27,5.62,14.9,12.367,15.571a7.089,7.089,0,0,0-1.958,1.309c-2.065,1.99-2.405,5.151-2.629,8.025l-.16,2.129-3.576,1.277a.66.66,0,0,0-.16,1.16l3.416,2.437v.607a2.661,2.661,0,0,0,.064.692,4.884,4.884,0,0,0-1.32,1.884,8.7,8.7,0,0,0-.309,3.448l.128,2.969a23.315,23.315,0,0,0,.9,6.609c.447,1.32,2.384,4.5,3.778,4.523-1.288,5.854-1.628,18.2-1.628,18.2-.16.16.287.309,1.064.436.766,5.875,3.267,22.35,7.706,29.6a62.412,62.412,0,0,1,1.671,7.195s1.267,15.656,2.938,20.307c1.426,3.959,2.554,13.729,2.863,16.56a1.628,1.628,0,0,0-1.181,1.213c-.841,2.533-6.29,6.386-6.29,6.386a26.344,26.344,0,0,0-4.7,3.012c-1.714,1.543-1.65,2.937,5.96,2.065,14.687-1.692,17.2-6.386,17.2-6.386s-.234-.788-.585-1.809a19.649,19.649,0,0,0-1.926-4.545c-.213-.2-.426.138-.681.671a91.13,91.13,0,0,1-1-20.552s.415-7.195-1.682-12.271a23.233,23.233,0,0,1,0-8.035c.841-3.384-3.353-19.892-3.353-19.892l-2.405-12.154a3.491,3.491,0,0,1,.671,1.416l.064.245.064.351a.66.66,0,0,0,.17.33c1.639,6.811,6.13,25.681,6.13,28.448,0,3.384,4.193,11.846,4.193,11.846s1.671,13.964,4.608,19.455c2.235,4.183,2.288,10.313,2.182,13.016h0s-.5,3.48-1.341,4.321a10.282,10.282,0,0,0-1.586,2.757l-.1.2s-1.256,2.544-.415,2.969a20.615,20.615,0,0,0,10.068,1.267s1.682-2.129,1.682-2.959a13.33,13.33,0,0,0-.192-1.511c-.309-2-.883-5.151-.894-5.183.351-1.362-1.064-5.151-1.064-5.151l-.426-11.846a54.683,54.683,0,0,0-2.937-23.7s-2.129-7.61-1.671-9.728-.841-24.543-.841-24.543l-.128-.319a24.242,24.242,0,0,1,.128-4.757c.415-5.077-1.256-15.656-1.682-16.071a13.943,13.943,0,0,1-.6-3.5c.1-.883.383-3.47.777-6.684a120.14,120.14,0,0,0,12.367-1.064,1.544,1.544,0,0,0,1.064-.426,1.49,1.49,0,0,0,.245-.862C848.746,618.762,846.415,612.568,844,606.672Zm-8.44,13.421c.436-3.033.9-5.971,1.373-8.152l.064.192a59.215,59.215,0,0,1,2.022,6.705A22.806,22.806,0,0,1,835.559,620.092Z" transform="translate(-4.346 -145.939)" fill="url(#linear-gradient)"/>
    <path id="Path_111" data-name="Path 111" d="M802.37,648.73s2.512,22.595,7.95,31.375a60.906,60.906,0,0,1,1.671,7.109s1.256,15.475,2.927,20.073,2.927,17.156,2.927,17.156,5.854,6.684,7.95,1.256a88.146,88.146,0,0,1-1.256-21.754s.415-7.11-1.671-12.133a22.69,22.69,0,0,1,0-7.94c.83-3.353-3.353-19.657-3.353-19.657L816.174,647.9Z" transform="translate(-3.756 -140.317)" fill="#be6f72"/>
    <path id="Path_112" data-name="Path 112" d="M828.58,725.313s-2.512,4.6-17.146,6.269c-7.6.862-7.652-.511-5.939-2.043a26.492,26.492,0,0,1,4.683-2.98s5.439-3.757,6.269-6.269,3.768-.415,3.768-.415c4.183,6.269,5.023-1.682,5.854-.841a18.876,18.876,0,0,1,1.926,4.481C828.346,724.526,828.58,725.313,828.58,725.313Z" transform="translate(-3.614 -135.747)" fill="#474555"/>
    <path id="Path_113" data-name="Path 113" d="M828.58,725.039s-2.512,4.6-17.146,6.269c-7.6.862-7.652-.511-5.939-2.043,1.192.756,3.6,1.064,8.44-.883,6.971-2.852,12.026-4.5,14.059-5.141C828.346,724.251,828.58,725.039,828.58,725.039Z" transform="translate(-3.614 -135.473)" opacity="0.1"/>
    <path id="Path_114" data-name="Path 114" d="M823.88,703.946s.415-7.109-1.671-12.133a22.688,22.688,0,0,1,0-7.94c.83-3.353-3.353-19.657-3.353-19.657L815.515,647.9l-2.895.17,3.31,16.145s4.183,16.3,3.353,19.657a22.688,22.688,0,0,0,0,7.94c2.129,5.023,1.671,12.133,1.671,12.133a88.143,88.143,0,0,0,1.256,21.754A3.662,3.662,0,0,1,821,727.424c1.554.7,3.193.671,4.14-1.724A88.149,88.149,0,0,1,823.88,703.946Z" transform="translate(-3.097 -140.317)" opacity="0.1"/>
    <path id="Path_115" data-name="Path 115" d="M822.409,562.42a14.9,14.9,0,0,0-7.9,2.246,14.209,14.209,0,0,0-15.964,7.61,17.326,17.326,0,0,0-5.417,12.942c0,8.9,5.992,16.1,13.378,16.1,5.321,0,9.983-3.789,12.122-9.27a14.689,14.689,0,0,0,3.768.49,15.06,15.06,0,0,0,0-30.12Z" transform="translate(-4.35 -145.813)" fill="#2f2e41"/>
    <path id="Path_116" data-name="Path 116" d="M833.255,650.65l1.256,3.342s1.256,22.169.83,24.266,1.682,9.579,1.682,9.579a53.544,53.544,0,0,1,2.927,23.414l.415,11.707s1.671,4.6.841,5.439-7.141-.745-7.141-.745.841-8.78-2.129-14.219-4.6-19.242-4.6-19.242-4.183-8.365-4.183-11.707-6.694-30.535-6.694-30.535Z" transform="translate(-2.85 -140.14)" fill="#be6f72"/>
    <path id="Path_117" data-name="Path 117" d="M801.582,651.851s.426-15.06,2.129-19.657a31.213,31.213,0,0,0,1.863-6.673s25.319,4.576,27.416,2.906c0,0,.415,5.854.841,6.269s2.129,10.877,1.671,15.9,0,5.013,0,5.013-17.156,2.512-17.571,0-1.671-2.5-1.671-2.5S800.752,652.638,801.582,651.851Z" transform="translate(-3.809 -141.756)" fill="#3f3d56"/>
    <g id="Group_15" data-name="Group 15" transform="translate(797.773 486.67)" opacity="0.1">
      <path id="Path_118" data-name="Path 118" d="M815.384,650.312s-10.579-.287-13.772-.862v.862c-.83.83,14.645,1.256,14.645,1.256a1.064,1.064,0,0,1,.575.234C816.267,650.312,815.384,650.312,815.384,650.312Z" transform="translate(-801.58 -626.887)"/>
      <path id="Path_119" data-name="Path 119" d="M832.818,634.519c-.426-.415-.841-6.269-.841-6.269a1.8,1.8,0,0,1-.713.255c.149,1.767.436,4.481.713,4.757s2.129,10.877,1.671,15.9,0,5.013,0,5.013-13.57,1.99-16.858.66a5.058,5.058,0,0,0,.128.6c.415,2.512,17.572,0,17.572,0s-.426,0,0-5.013S833.233,634.944,832.818,634.519Z" transform="translate(-800.602 -628.25)"/>
      <path id="Path_120" data-name="Path 120" d="M815.384,650.312s-10.579-.287-13.772-.862v.862c-.83.83,14.645,1.256,14.645,1.256a1.064,1.064,0,0,1,.575.234C816.267,650.312,815.384,650.312,815.384,650.312Z" transform="translate(-801.58 -626.887)"/>
      <path id="Path_121" data-name="Path 121" d="M832.818,634.519c-.426-.415-.841-6.269-.841-6.269a1.8,1.8,0,0,1-.713.255c.149,1.767.436,4.481.713,4.757s2.129,10.877,1.671,15.9,0,5.013,0,5.013-13.57,1.99-16.858.66a5.058,5.058,0,0,0,.128.6c.415,2.512,17.572,0,17.572,0s-.426,0,0-5.013S833.233,634.944,832.818,634.519Z" transform="translate(-800.602 -628.25)"/>
    </g>
    <path id="Path_122" data-name="Path 122" d="M819.444,587.44a5.546,5.546,0,0,0,1.6,2.065,3.577,3.577,0,0,0,1.5.649c-.937.543-1.958.947-2.895,1.49a51.476,51.476,0,0,0-4.257,3.193,8.663,8.663,0,0,1-4.885,1.895,5.982,5.982,0,0,0,.681-5.95,5.556,5.556,0,0,1-.745-2.065c0-1.2,1.064-2.129,2.054-2.767.8-.543,1.618-1.064,2.448-1.586.649-.4,1.628-1.256,2.448-1.224s.915.756,1.064,1.5A11.8,11.8,0,0,0,819.444,587.44Z" transform="translate(-3.237 -144.481)" fill="#be6f72"/>
    <path id="Path_123" data-name="Path 123" d="M819.444,587.44a5.546,5.546,0,0,0,1.6,2.065,3.577,3.577,0,0,0,1.5.649c-.937.543-1.958.947-2.895,1.49a51.476,51.476,0,0,0-4.257,3.193,8.663,8.663,0,0,1-4.885,1.895,5.982,5.982,0,0,0,.681-5.95,5.556,5.556,0,0,1-.745-2.065c0-1.2,1.064-2.129,2.054-2.767.8-.543,1.618-1.064,2.448-1.586.649-.4,1.628-1.256,2.448-1.224s.915.756,1.064,1.5A11.8,11.8,0,0,0,819.444,587.44Z" transform="translate(-3.237 -144.481)" opacity="0.1"/>
    <circle id="Ellipse_28" data-name="Ellipse 28" cx="9.621" cy="9.621" r="9.621" transform="translate(816.388 448.398)" fill="#be6f72"/>
    <path id="Path_124" data-name="Path 124" d="M841.6,730.241c0,.841-1.671,2.927-1.671,2.927a20.711,20.711,0,0,1-10.036-1.256c-.841-.415.415-2.927.415-2.927l.1-.2a10.155,10.155,0,0,1,1.586-2.725c.83-.83,1.33-4.257,1.33-4.257,2.6-4.257,7.205,1.841,7.205,1.841s.585,3.193.894,5.13A14.589,14.589,0,0,1,841.6,730.241Z" transform="translate(-2.005 -135.663)" fill="#474555"/>
    <path id="Path_125" data-name="Path 125" d="M841.6,729.73c0,.841-1.671,2.927-1.671,2.927A20.711,20.711,0,0,1,829.9,731.4c-.841-.415.415-2.927.415-2.927l.1-.2a20.223,20.223,0,0,0,9.11,1.873l1.905-1.905C841.53,728.953,841.6,729.517,841.6,729.73Z" transform="translate(-2.005 -135.151)" opacity="0.1"/>
    <circle id="Ellipse_29" data-name="Ellipse 29" cx="9.408" cy="9.408" r="9.408" transform="translate(797.358 428.527)" fill="#be6f72"/>
    <path id="Path_126" data-name="Path 126" d="M803.084,600.292c-2.065,1.969-2.405,5.087-2.618,7.929l-.319,4.161a21,21,0,0,0-.074,3.374c0,.692.17,1.394.234,2.129s.085,1.66.1,2.5v6.152a7.257,7.257,0,0,0,.681,3.693,2.512,2.512,0,0,0,3.193,1.15,3.64,3.64,0,0,0,1.32-2.043,31.765,31.765,0,0,0,2.129-7.791c.085-.926.1-1.852.181-2.778s.245-1.894.383-2.831c.6-3.917.862-7.876,1.128-11.824.075-1.171,1.128-5.779-.4-6.29-.745-.245-2.288.521-3,.777a8.449,8.449,0,0,0-2.927,1.692Z" transform="translate(-3.906 -143.54)" fill="#be6f72"/>
    <path id="Path_127" data-name="Path 127" d="M803.084,600.292c-2.065,1.969-2.405,5.087-2.618,7.929l-.319,4.161a21,21,0,0,0-.074,3.374c0,.692.17,1.394.234,2.129s.085,1.66.1,2.5v6.152a7.257,7.257,0,0,0,.681,3.693,2.512,2.512,0,0,0,3.193,1.15,3.64,3.64,0,0,0,1.32-2.043,31.765,31.765,0,0,0,2.129-7.791c.085-.926.1-1.852.181-2.778s.245-1.894.383-2.831c.6-3.917.862-7.876,1.128-11.824.075-1.171,1.128-5.779-.4-6.29-.745-.245-2.288.521-3,.777a8.449,8.449,0,0,0-2.927,1.692Z" transform="translate(-3.906 -143.54)" opacity="0.1"/>
    <path id="Path_128" data-name="Path 128" d="M822.308,588.16s-7.109,5.439-11.292,6.694c0,0-2.48,2.831-2.905,3.512s-1.277,8.2-2.129,9.877-2.927,5.439,0,9.2c0,0,.83,3.768.415,5.023s-1.937,5.854-.553,6.066,5.577,3.129,9.334,2.3,17.784,3.193,17.784,3.193,2.32-21.552,4-25.362L833.2,607.4s-10.451-6.269-4.183-15.89C829,591.513,823.127,590.257,822.308,588.16Z" transform="translate(-3.621 -144.158)" fill="#232d95"/>
    <path id="Path_129" data-name="Path 129" d="M796.856,611.994l8.642,6.12a.638.638,0,0,0,.756,0l2.341-1.756a.66.66,0,0,0,0-1l-6.652-5.907a.638.638,0,0,0-.649-.128l-4.268,1.533a.649.649,0,0,0-.17,1.139Z" transform="translate(-4.128 -142.8)" fill="#3f3d56"/>
    <path id="Path_130" data-name="Path 130" d="M799.636,630.145a23.162,23.162,0,0,1-.9-6.524l-.128-2.948a8.513,8.513,0,0,1,.309-3.406,5.566,5.566,0,0,1,3.587-3.14,12.386,12.386,0,0,1,4.885-.351,1.256,1.256,0,0,1,.628.17,1.17,1.17,0,0,1,.341.575,3.853,3.853,0,0,1,.192,3.076,3.192,3.192,0,0,1-.979,1.011c-1.16.83-2.512,1.383-3.608,2.288a1.309,1.309,0,0,0-.49.617,1.437,1.437,0,0,0,0,.671,10.723,10.723,0,0,0,.553,1.714,1.692,1.692,0,0,0,.479.724c.2.17.468.234.681.394.458.372,1.416.862,1.362,1.447-.16,2.129-1.437,4.513-1.937,6.62C803.648,637.2,800.253,631.944,799.636,630.145Z" transform="translate(-4.002 -142.517)" fill="#be6f72"/>
    <g id="Group_16" data-name="Group 16" transform="translate(808.842 463.873)" opacity="0.1">
      <path id="Path_131" data-name="Path 131" d="M812.214,628.256h-.234a7.164,7.164,0,0,0,2.735,0h.266a9.583,9.583,0,0,0-2.767,0Z" transform="translate(-811.98 -605.459)"/>
      <path id="Path_132" data-name="Path 132" d="M833.078,606.83c-1.5,3.374-3.714,21.648-4.108,25.277,1.469.383,2.437.66,2.437.66s2.3-21.5,3.98-25.309Z" transform="translate(-810.888 -606.83)"/>
    </g>
    <path id="Path_133" data-name="Path 133" d="M829.482,602.3a3.193,3.193,0,0,0,1.373,2.075,18.427,18.427,0,0,1,2.437,2.469,17.487,17.487,0,0,1,2.416,4.843,59.323,59.323,0,0,1,2.012,6.62c-5.322,2.469-11.367,2.352-17.029,3.98a13.591,13.591,0,0,0-6.386,3.778A8.8,8.8,0,0,0,811.953,633a.9.9,0,0,0,.128.415.894.894,0,0,0,.745.3,6.385,6.385,0,0,0,3.906-1.341,18.59,18.59,0,0,0,2.991-2.937,4.811,4.811,0,0,1,2.129-1.575c3.076-.937,6.386-.883,9.579-.937a120.707,120.707,0,0,0,14.272-1.128,1.149,1.149,0,0,0,1.277-1.277c.468-6.279-1.863-12.41-4.257-18.231q-1.437-3.5-2.959-6.971a20.649,20.649,0,0,0-3.619-6.194,6.386,6.386,0,0,0-2.129-1.575,9,9,0,0,0-2.852-.532,20.23,20.23,0,0,0-4.672-.085,9.954,9.954,0,0,0-.447,2.416c.085,2.874,1.341,5.566,2.576,8.163C828.779,601.9,829.237,601.92,829.482,602.3Z" transform="translate(-3.143 -143.986)" fill="#be6f72"/>
    <path id="Path_134" data-name="Path 134" d="M812.474,606.67a7.8,7.8,0,0,0-1.064,4.066,5.474,5.474,0,0,0,.266,1.66,5.385,5.385,0,0,0,3.4,3.193" transform="translate(-3.175 -142.968)" fill="none" stroke="#000" stroke-miterlimit="10" stroke-width="1" opacity="0.1"/>
    <path id="Path_135" data-name="Path 135" d="M818.664,574.023a4.884,4.884,0,0,0-1.543.245c-1.394-2.129-4.672-3.6-8.514-3.6-5.087,0-9.206,2.629-9.206,5.864s4.119,5.854,9.206,5.854a12.95,12.95,0,0,0,5.524-1.171,5.013,5.013,0,1,0,4.513-7.195Z" transform="translate(-3.947 -145.282)" fill="#2f2e41"/>
    <path id="Path_136" data-name="Path 136" d="M819.08,582.56a5,5,0,0,1-4.513-2.843,12.953,12.953,0,0,1-5.523,1.172c-5.077,0-9.2-2.618-9.2-5.854a3.517,3.517,0,0,1,0-.585,3.97,3.97,0,0,0-.468,1.841c0,3.193,4.119,5.854,9.206,5.854a12.952,12.952,0,0,0,5.524-1.171,5.013,5.013,0,0,0,9.44-1.245,4.992,4.992,0,0,1-4.47,2.831Z" transform="translate(-3.948 -145.039)" opacity="0.1"/>
    <path id="Path_137" data-name="Path 137" d="M798.561,574.745a14.208,14.208,0,0,1,15.964-7.61,15.049,15.049,0,0,1,22.9,11.558v-1.256a15.049,15.049,0,0,0-22.957-12.771,14.208,14.208,0,0,0-15.964,7.61,17.327,17.327,0,0,0-5.417,12.942v1.256A17.029,17.029,0,0,1,798.561,574.745Z" transform="translate(-4.353 -145.813)" opacity="0.1"/>
    <path id="Path_156" data-name="Path 156" d="M538.62,589.715a10.441,10.441,0,0,0-4.161-8.429,12.239,12.239,0,0,0-10.228-12.005,12.218,12.218,0,0,0-8.142-9.1h0a10.39,10.39,0,0,0-1.511-.351h-1.8a11.984,11.984,0,0,0-11.58,10.239c-3.736-.862-7.152.255-7.78,2.618a3.192,3.192,0,0,0,.106,1.895c.639,1.83,2.714,3.587,5.492,4.449l.362.106.543.138h.117a9.409,9.409,0,0,0-.894,4.034,9.3,9.3,0,0,0,5.013,8.3l-.245.149a3.32,3.32,0,0,0-.809,1.128,16.877,16.877,0,0,0-1.564,3.767c-.266,1.128-.309,2.3-.639,3.417-.617,2.054-2.192,3.789-2.373,5.928-.085.958.075,2.129-.607,2.746a3.312,3.312,0,0,1-.543.383,4.393,4.393,0,0,0-1.181,1.245,4.131,4.131,0,0,1-.83,1.192c-.617.458-1.628.415-1.926,1.128s.479,1.554.3,2.331-.841.926-1.32,1.362a4.737,4.737,0,0,0-1.139,2.129,6.982,6.982,0,0,1-5.747-1.469,10.74,10.74,0,0,1,.6,2.128,9.325,9.325,0,0,0-3.1-1.554,9.779,9.779,0,0,1-3.3-2.448l1.767-.245-7.8-11.909-2.31-.479,2.065,3.97a1.266,1.266,0,0,0-.7.841,3.607,3.607,0,0,0-.075,1.352,24.193,24.193,0,0,0,.532,3.193l.6,2.788c.053.255.117.521.192.777a7.33,7.33,0,0,0-2.31.255,20.1,20.1,0,0,0-4.8-1.139,2.659,2.659,0,0,0-1.064,0,2.755,2.755,0,0,0-1.011.819,32.729,32.729,0,0,0-3.565,5.023c-4.257,7.3-9.8,13.676-15.049,20.275-3.619,1.469-7.269,2.863-10.92,4.257l-7.854,3a11.909,11.909,0,0,1-4.874,1.064c-.745,0-1.671-.16-2.129.479a4.481,4.481,0,0,0-.479,1.064l-.809.085h0a9.3,9.3,0,0,0-1.884-3.47,1.192,1.192,0,0,0-.883.681c-.192.351-.309.734-.532,1.064-.415.617-1.149.915-1.671,1.437s-.851,1.33-1.426,1.863a5.64,5.64,0,0,1-2.671,1.064,16.859,16.859,0,0,0-4.183,1.586,6.735,6.735,0,0,1-1.543.713,5.8,5.8,0,0,1-1.82.064l-4.151-.309a3.275,3.275,0,0,0-1.117.053,2.129,2.129,0,0,0-1.32,2.129,3.352,3.352,0,0,0,1.32,2.288,8.452,8.452,0,0,0,2.363,1.224,69.337,69.337,0,0,0,11.069,3.278v.841a18.891,18.891,0,0,0,8.514,2.022,1.32,1.32,0,0,0,.639-.117,1.405,1.405,0,0,0,.532-.83,34.24,34.24,0,0,0,1.66-8.153h0a4.255,4.255,0,0,0,1.5-.383c1.426-.394,2.852.585,4.332.745,1.82.2,3.5-.862,5.226-1.511l.745-.245a8.17,8.17,0,0,1-1.724,1.65c-.713.511-1.511.894-2.2,1.426a15.177,15.177,0,0,1-1.873,1.448,11.762,11.762,0,0,1-1.437.553,9.48,9.48,0,0,0-2.054,1.064,4.16,4.16,0,0,0-1.394,1.362,2.044,2.044,0,0,0-.117,1.916,2.022,2.022,0,0,0,1.373.958,5.633,5.633,0,0,0,1.692,0c2.256-.17,4.5-.372,6.748-.575a18,18,0,0,0,2.82-.4c.49-.117.979-.277,1.469-.415a13.109,13.109,0,0,1,2.565-.383,2.129,2.129,0,0,1,.745.074c.521.17.894.7,1.426.809a2.129,2.129,0,0,0,1.064-.138,23.734,23.734,0,0,1,4.992-.532,2.06,2.06,0,0,0,1.937-.862c.341-.681-.277-1.777-.553-2.682a8.206,8.206,0,0,1-.234-1.767,11.059,11.059,0,0,0-1.235-4.193,10.947,10.947,0,0,1-.926-1.916,48.4,48.4,0,0,0,9.185-4.662,16.422,16.422,0,0,1,5.236-2.522,14.24,14.24,0,0,1,6.577.766,149.657,149.657,0,0,1,15.081,5.258c2.352.968,4.694,1.99,7.12,2.725a11.1,11.1,0,0,0,2.533,2.458,11.708,11.708,0,0,0,5.481,1.5,71.85,71.85,0,0,0,7.716.287,13.015,13.015,0,0,0,5.747-1.064,5.9,5.9,0,0,0,1.2-.8,4.768,4.768,0,0,0,3.789-1.394,9.185,9.185,0,0,0,2.884-4.555c.628-2.427.149-5.322,1.639-7.259.394-.532.915-.958,1.309-1.49a4.194,4.194,0,0,0,.681-2.459.5.5,0,0,1,.064-.1,9.013,9.013,0,0,0,.639-2.448,13.994,13.994,0,0,1,.692-1.937,59.788,59.788,0,0,0,1.98-5.737,33.516,33.516,0,0,0,.915-3.938c.16-1.064.255-2.129.341-3.193a19.832,19.832,0,0,1,.969-4.928,40.1,40.1,0,0,0,2.235-11.792v-.234a7.908,7.908,0,0,0,7-8.046,8.4,8.4,0,0,0-.734-3.437,10.643,10.643,0,0,0,1.426-5.364ZM500.54,635.98c.117.415.255.819.394,1.224-.628-.607-1.235-1.235-1.862-1.852.245.085.5.16.734.255a3.962,3.962,0,0,1,.7.372Zm-3.012-2.043c-3.682-3.193-7.94-5.673-11.707-8.77,2.054,1.011,4.055,2.193,6.035,3.321q3.523,2.012,7.141,3.863a5.842,5.842,0,0,1-1.5,1.586Zm1.565-8.046.181-.181v1.266l-.99-.341a8.822,8.822,0,0,0,.777-.745Zm-32.387,8.621a30.469,30.469,0,0,0,3.917-5.588c1.458,2.544,3.832,4.385,5.843,6.524C473.219,635.033,469.963,634.682,466.706,634.511Z" transform="translate(-29.888 -145.979)" fill="url(#linear-gradient-2)"/>
    <path id="Path_157" data-name="Path 157" d="M415.35,438.25l2.32.468,7.908,11.7-3.48.468Z" transform="translate(26.704 19.29)" fill="#2f2e41"/>
    <path id="Path_158" data-name="Path 158" d="M414.49,645.467a45.524,45.524,0,0,0,2.32,6.035,57.454,57.454,0,0,0,7.716-2.2,24.312,24.312,0,0,0-1.607-2.129,7.938,7.938,0,0,0-2.182-1.671,6,6,0,0,0-2.65,0C416.9,645.467,415.693,645.488,414.49,645.467Z" transform="translate(-28.694 -140.481)" fill="#fbbebe"/>
    <path id="Path_159" data-name="Path 159" d="M421.949,648.788a4.81,4.81,0,0,1-2.639-3A9.664,9.664,0,0,0,417.3,642.2a1.149,1.149,0,0,0-.894.671c-.192.341-.309.724-.521,1.064-.426.607-1.171.9-1.7,1.416s-.851,1.309-1.426,1.831a5.661,5.661,0,0,1-2.693,1.064,17.458,17.458,0,0,0-4.257,1.564,7.348,7.348,0,0,1-1.564.7,6.192,6.192,0,0,1-1.831,0l-4.193-.3a3.274,3.274,0,0,0-1.064,0,2.033,2.033,0,0,0-1.33,2.129,3.193,3.193,0,0,0,1.33,2.256,8.836,8.836,0,0,0,2.384,1.213,70.141,70.141,0,0,0,11.239,3.193v.83a19.455,19.455,0,0,0,8.568,1.99,1.447,1.447,0,0,0,.639-.106,1.4,1.4,0,0,0,.532-.83,33.206,33.206,0,0,0,1.756-9.11,7.257,7.257,0,0,0-.181-2.352c-.234-.756.553-.436-.17-.734" transform="translate(-29.895 -140.683)" fill="#202020"/>
    <path id="Path_160" data-name="Path 160" d="M500.916,633.74c-12.431.745-24.713-2.895-37.165-3.278a18.146,18.146,0,0,0-4.619.287,23.27,23.27,0,0,0-4.576,1.777c-6.673,3.108-13.58,5.683-20.477,8.248l-7.929,2.948a12,12,0,0,1-4.906,1.064c-.756,0-1.682-.16-2.129.468-1.288,1.916-.681,4.715.17,6.865.277.692.745,1.447,1.49,1.522a4.331,4.331,0,0,0,1.511-.383c1.437-.383,2.874.585,4.364.745,1.831.192,3.533-.851,5.268-1.49,2.874-1.064,6-1.064,9.025-1.533,5.055-.841,9.749-3.193,14.134-5.864a16.5,16.5,0,0,1,5.268-2.49,14.58,14.58,0,0,1,6.631.756,152.18,152.18,0,0,1,15.209,5.172,70.89,70.89,0,0,0,7.94,2.906A28.735,28.735,0,0,0,507.93,650.4c1.99-.787,4.151-2.129,4.257-4.321.075-1.224-.883-2.3-1.511-3.353-.4-.671-.82-1.341-1.256-1.99C507.292,637.646,504.695,633.517,500.916,633.74Z" transform="translate(-28.445 -141.44)" fill="#2f2e41"/>
    <path id="Path_161" data-name="Path 161" d="M500.916,633.74c-12.431.745-24.713-2.895-37.165-3.278a18.146,18.146,0,0,0-4.619.287,23.27,23.27,0,0,0-4.576,1.777c-6.673,3.108-13.58,5.683-20.477,8.248l-7.929,2.948a12,12,0,0,1-4.906,1.064c-.756,0-1.682-.16-2.129.468-1.288,1.916-.681,4.715.17,6.865.277.692.745,1.447,1.49,1.522a4.331,4.331,0,0,0,1.511-.383c1.437-.383,2.874.585,4.364.745,1.831.192,3.533-.851,5.268-1.49,2.874-1.064,6-1.064,9.025-1.533,5.055-.841,9.749-3.193,14.134-5.864a16.5,16.5,0,0,1,5.268-2.49,14.58,14.58,0,0,1,6.631.756,152.18,152.18,0,0,1,15.209,5.172,70.89,70.89,0,0,0,7.94,2.906A28.735,28.735,0,0,0,507.93,650.4c1.99-.787,4.151-2.129,4.257-4.321.075-1.224-.883-2.3-1.511-3.353-.4-.671-.82-1.341-1.256-1.99C507.292,637.646,504.695,633.517,500.916,633.74Z" transform="translate(-28.445 -141.44)" fill="#2f2e41" opacity="0.1"/>
    <path id="Path_162" data-name="Path 162" d="M436.92,646.313q2.916.99,5.886,1.831c1.064-1.82,3.193-3.086,3.651-5.172a.49.49,0,0,0,0-.277.511.511,0,0,0-.223-.2,11.153,11.153,0,0,0-4.619-1.352c-1.277-.074-1.862,1.256-2.437,2.192C438.953,643.748,437.441,646.515,436.92,646.313Z" transform="translate(-27.252 -140.752)" fill="#fbbebe"/>
    <path id="Path_163" data-name="Path 163" d="M440.641,644.958a4.257,4.257,0,0,1-2.863-1.884c-.266-.479-.564-1.128-1.117-1.064s-.734.639-.851,1.139a31.925,31.925,0,0,1-1.607,5.524,10.366,10.366,0,0,1-3.438,4.523c-.724.5-1.522.873-2.235,1.4a15.355,15.355,0,0,1-1.884,1.426,11.2,11.2,0,0,1-1.447.532,10.029,10.029,0,0,0-2.065,1.064,4.1,4.1,0,0,0-1.415,1.352,1.947,1.947,0,0,0-.106,1.884,2.011,2.011,0,0,0,1.373.937,5.791,5.791,0,0,0,1.713,0c2.267-.16,4.534-.362,6.8-.564a19.623,19.623,0,0,0,2.842-.394l1.479-.4a11.774,11.774,0,0,1,2.586-.383,2.011,2.011,0,0,1,.756.075c.522.17.894.692,1.437.8a2.406,2.406,0,0,0,1.064-.138,23.5,23.5,0,0,1,5.034-.522,2.124,2.124,0,0,0,1.958-.851c.426-.83-.277-1.756-.564-2.65a8.514,8.514,0,0,1-.234-1.735,10.579,10.579,0,0,0-1.245-4.129c-.575-1.064-1.362-2.235-.958-3.363a3.193,3.193,0,0,0,.383-1.16C445.878,644.543,441.684,645.192,440.641,644.958Z" transform="translate(-28.249 -140.696)" fill="#202020"/>
    <path id="Path_164" data-name="Path 164" d="M479.053,615.46a9.707,9.707,0,0,1-4.96-4.917c-.2-.468-.372-.969-.575-1.437a10.921,10.921,0,0,0-2.959-4.119,1.458,1.458,0,0,0-1.064-.458,1.16,1.16,0,0,0-.8.862,3.289,3.289,0,0,0-.085,1.33,23.694,23.694,0,0,0,.532,3.108l.607,2.746a6.031,6.031,0,0,0,.373,1.224,4.256,4.256,0,0,0,1.011,1.2c.553.511,1.117,1,1.682,1.49a5.776,5.776,0,0,0,1.064.734,6.182,6.182,0,0,0,1.884.554,16.03,16.03,0,0,1,7.067,2.724s0-1.841,0-2.043a2.7,2.7,0,0,0-.532-1.479A9.439,9.439,0,0,0,479.053,615.46Z" transform="translate(-25.217 -143.105)" fill="#fbbebe"/>
    <path id="Path_165" data-name="Path 165" d="M479.053,615.46a9.707,9.707,0,0,1-4.96-4.917c-.2-.468-.372-.969-.575-1.437a10.921,10.921,0,0,0-2.959-4.119,1.458,1.458,0,0,0-1.064-.458,1.16,1.16,0,0,0-.8.862,3.289,3.289,0,0,0-.085,1.33,23.694,23.694,0,0,0,.532,3.108l.607,2.746a6.031,6.031,0,0,0,.373,1.224,4.256,4.256,0,0,0,1.011,1.2c.553.511,1.117,1,1.682,1.49a5.776,5.776,0,0,0,1.064.734,6.182,6.182,0,0,0,1.884.554,16.03,16.03,0,0,1,7.067,2.724s0-1.841,0-2.043a2.7,2.7,0,0,0-.532-1.479A9.439,9.439,0,0,0,479.053,615.46Z" transform="translate(-25.217 -143.105)" opacity="0.1"/>
    <ellipse id="Ellipse_30" data-name="Ellipse 30" cx="3.023" cy="3.044" rx="3.023" ry="3.044" transform="translate(476.122 445.258)" fill="#2f2e41"/>
    <path id="Path_166" data-name="Path 166" d="M501.7,590.485a3.267,3.267,0,0,0-2.384.341,3.31,3.31,0,0,0-.819,1.118,16.232,16.232,0,0,0-1.575,3.7c-.266,1.064-.309,2.267-.649,3.363-.617,2.022-2.2,3.736-2.384,5.843-.085.947.075,2.054-.617,2.693a3.914,3.914,0,0,1-.543.394,4.088,4.088,0,0,0-1.192,1.224,4.014,4.014,0,0,1-.841,1.16c-.617.458-1.639.415-1.937,1.064s.479,1.533.3,2.3-.851.915-1.33,1.341a4.65,4.65,0,0,0-1.149,2.129,7.1,7.1,0,0,1-5.79-1.437,18.435,18.435,0,0,1,.9,6.62,2.7,2.7,0,0,1-.532,2.043,36.859,36.859,0,0,1,7.1,1.234,4.9,4.9,0,0,0,3.1,0,5.172,5.172,0,0,0,1.426-1.128c1.277-1.3,2.618-2.714,2.927-4.513a26.509,26.509,0,0,0,.053-3.054,17.223,17.223,0,0,1,.777-3.714,44.2,44.2,0,0,0,1.352-7.642c.138-1.6,1.522-2.874,2.246-4.257,1.362-2.693,2.767-5.492,2.863-8.514C503.044,591.816,502.7,590.592,501.7,590.485Z" transform="translate(-24.432 -144.014)" fill="#2f2e41"/>
    <path id="Path_167" data-name="Path 167" d="M501.7,590.485a3.267,3.267,0,0,0-2.384.341,3.31,3.31,0,0,0-.819,1.118,16.232,16.232,0,0,0-1.575,3.7c-.266,1.064-.309,2.267-.649,3.363-.617,2.022-2.2,3.736-2.384,5.843-.085.947.075,2.054-.617,2.693a3.914,3.914,0,0,1-.543.394,4.088,4.088,0,0,0-1.192,1.224,4.014,4.014,0,0,1-.841,1.16c-.617.458-1.639.415-1.937,1.064s.479,1.533.3,2.3-.851.915-1.33,1.341a4.65,4.65,0,0,0-1.149,2.129,7.1,7.1,0,0,1-5.79-1.437,18.435,18.435,0,0,1,.9,6.62,2.7,2.7,0,0,1-.532,2.043,36.859,36.859,0,0,1,7.1,1.234,4.9,4.9,0,0,0,3.1,0,5.172,5.172,0,0,0,1.426-1.128c1.277-1.3,2.618-2.714,2.927-4.513a26.509,26.509,0,0,0,.053-3.054,17.223,17.223,0,0,1,.777-3.714,44.2,44.2,0,0,0,1.352-7.642c.138-1.6,1.522-2.874,2.246-4.257,1.362-2.693,2.767-5.492,2.863-8.514C503.044,591.816,502.7,590.592,501.7,590.485Z" transform="translate(-24.432 -144.014)" fill="#2f2e41" opacity="0.1"/>
    <path id="Path_168" data-name="Path 168" d="M501.53,637.547c-2.586-1.235-4.481-3.523-6.577-5.492-3.991-3.757-8.876-6.386-13.08-9.93-2.788-2.331-5.321-5.045-8.333-7A20.827,20.827,0,0,0,464.61,612a2.374,2.374,0,0,0-1.064,0,2.448,2.448,0,0,0-1.011.8,32.161,32.161,0,0,0-3.608,4.949C453.6,626.8,446.038,634.4,439.769,642.8a1.6,1.6,0,0,0-.309.6,1.479,1.479,0,0,0,.234.926l1.277,2.49c.713,1.4,1.863,3.033,3.4,2.757a3.714,3.714,0,0,0,1.777-1.139l5.726-5.481,6-5.737c3.512-3.353,7.088-6.79,9.387-11.09,1.788,3.108,4.97,5.141,7.141,7.982.83,1.064,1.511,2.267,2.256,3.416,1.181,1.831,2.533,3.555,3.874,5.321l6.886,8.78a13.175,13.175,0,0,0,3.193,3.193,12.187,12.187,0,0,0,5.524,1.479,72.99,72.99,0,0,0,7.78.277,13.411,13.411,0,0,0,5.8-1.065,5.257,5.257,0,0,0,3.14-4.672,6.854,6.854,0,0,0-.99-2.906C509.374,643.5,506.16,639.75,501.53,637.547Z" transform="translate(-27.089 -142.629)" fill="#2f2e41"/>
    <ellipse id="Ellipse_31" data-name="Ellipse 31" cx="2.331" cy="2.341" rx="2.331" ry="2.341" transform="translate(478.677 448.068)" fill="#e8e8f0"/>
    <path id="Path_169" data-name="Path 169" d="M503.663,592.972a4.481,4.481,0,0,1,.255,3.363,13.641,13.641,0,0,1-1.5,3.1,14.74,14.74,0,0,1-1.948,2.767c3.6.17,7.078-1.235,10.239-2.937,2.554-1.373,5.1-3.065,6.46-5.63a2.98,2.98,0,0,1-2.384-.447,8.516,8.516,0,0,1-1.82-1.692l-1.8-2.022a8.1,8.1,0,0,1-1.064-1.458,4.023,4.023,0,0,1-.479-2.352,13.694,13.694,0,0,1-2.384,1.98c-1.288.841-2.7,1.447-4,2.278-.447.3-1.469.766-1.2,1.362S503.3,592.333,503.663,592.972Z" transform="translate(-23.166 -144.319)" fill="#fbbebe"/>
    <path id="Path_170" data-name="Path 170" d="M503.663,592.972a4.481,4.481,0,0,1,.255,3.363,13.641,13.641,0,0,1-1.5,3.1,14.74,14.74,0,0,1-1.948,2.767c3.6.17,7.078-1.235,10.239-2.937,2.554-1.373,5.1-3.065,6.46-5.63a2.98,2.98,0,0,1-2.384-.447,8.516,8.516,0,0,1-1.82-1.692l-1.8-2.022a8.1,8.1,0,0,1-1.064-1.458,4.023,4.023,0,0,1-.479-2.352,13.694,13.694,0,0,1-2.384,1.98c-1.288.841-2.7,1.447-4,2.278-.447.3-1.469.766-1.2,1.362S503.3,592.333,503.663,592.972Z" transform="translate(-23.166 -144.319)" opacity="0.1"/>
    <path id="Path_171" data-name="Path 171" d="M504.366,592.883a3.033,3.033,0,0,0,0,3.512c.106.128.49.926.649.937a.585.585,0,0,0,.4-.213A26.711,26.711,0,0,0,507.7,594.4a5.066,5.066,0,0,1,2.895-1.894,6.258,6.258,0,0,1,3.991,1.245,3.787,3.787,0,0,1,1.373,1.064,3.715,3.715,0,0,1,.447,1.522,73.325,73.325,0,0,1,.4,9.675,38.124,38.124,0,0,1-.458,6.971c-.234,1.181-.575,2.341-.734,3.544a22.6,22.6,0,0,0-.149,3.193v4.449a11.7,11.7,0,0,0,.17,2.437c.213.968.671,1.873.979,2.82a18.45,18.45,0,0,1,.649,3.331l.607,4.6c.192,1.447.341,3.033-.543,4.257-.394.522-.915.947-1.32,1.469-1.5,1.958-1.064,4.757-1.65,7.152a8.919,8.919,0,0,1-2.916,4.47,4.821,4.821,0,0,1-3.842,1.373c-1.873-.351-2.991-2.3-3.5-4.14s-.692-3.842-1.8-5.4a14.311,14.311,0,0,0-3.555-2.969,6.141,6.141,0,0,1-2.778-3.608c-.117-.671,0-1.362-.117-2.043a4.821,4.821,0,0,0-2.969-3.906c-.958-.372-2.129-.511-2.682-1.383a6.46,6.46,0,0,0,2.8-3.757,19.3,19.3,0,0,0,.681-4.747l.319-5.321c.149-2.395.213-4.757,1.266-6.907.468-.958,1.064-1.863,1.543-2.81a30.505,30.505,0,0,0,1.65-4.119c.766-2.193,1.533-4.385,2.214-6.6a12.432,12.432,0,0,1,1.213-3.076C502.461,594.3,503.291,593.1,504.366,592.883Z" transform="translate(-23.827 -143.878)" fill="#f1eeef"/>
    <path id="Path_172" data-name="Path 172" d="M492.369,627.68h1.416l.3-2.129a4.437,4.437,0,0,1,.3-1.245,7.45,7.45,0,0,1,.82-1.192c1.384-1.969,1.288-4.576,1.628-6.971a35.47,35.47,0,0,1,3.108-9.11l2.746-6.12a8.451,8.451,0,0,0,.6-1.565,9.383,9.383,0,0,0,.17-1.809c0-.947.3-4.4.33-5.321,0-.351-.777-.16-.937-.468-.341-.681-.809,1.16-1.458,1.565a3.576,3.576,0,0,0-1.267,1.852c-.6,1.533-.958,3.193-1.511,4.715a9.632,9.632,0,0,1-2.565,4.172c-.564.49-1.213.883-1.745,1.416-1.7,1.682-1.873,4.353-1.926,6.758C492.327,613.695,492.05,627.68,492.369,627.68Z" transform="translate(-23.697 -143.937)" fill="#2f2e41"/>
    <path id="Path_173" data-name="Path 173" d="M512.28,590.479a4.832,4.832,0,0,0-2.522,3.459,17.5,17.5,0,0,1-1.277,4.257c-1.724,3-6.12,3.874-7.344,7.12a13.09,13.09,0,0,0-.49,3.353c-.213,2.331-.979,4.576-1.213,6.9a30.73,30.73,0,0,0,.128,5.417l1.543,18.327a24.479,24.479,0,0,1-.458,8.067,7.769,7.769,0,0,0,4.619-.766c1.437-.66,2.756-1.565,4.151-2.331,2.384-1.32,5.023-2.246,7.12-4a4.354,4.354,0,0,0,.958-1.064,9.2,9.2,0,0,0,.639-2.405,12.981,12.981,0,0,1,.692-1.895,55.809,55.809,0,0,0,2-5.662,32.511,32.511,0,0,0,.915-3.874c.17-1.064.266-2.129.351-3.193a18.728,18.728,0,0,1,.979-4.842,39.008,39.008,0,0,0,2.246-11.622,6.075,6.075,0,0,0-.117-1.7,9.108,9.108,0,0,0-.937-1.948c-.639-1.2-1.064-2.522-1.618-3.746a18.423,18.423,0,0,0-6.29-6.609C515.122,590.873,513.674,589.979,512.28,590.479Z" transform="translate(-23.237 -144.018)" fill="#2f2e41"/>
    <path id="Path_174" data-name="Path 174" d="M482.3,618.943a11.1,11.1,0,0,1-2.927-2.224c-.383-.447-.7-.947-1.064-1.394a7.248,7.248,0,0,0-3.682-2.129,17.988,17.988,0,0,0-4.257-.415,7.725,7.725,0,0,0-2.842.341,2.9,2.9,0,0,0-1.884,2.022,3.352,3.352,0,0,0,1.437,2.98,6.77,6.77,0,0,0,2.863,1.384,22.9,22.9,0,0,0,2.586.309c5.087.532,9.632,3.3,14.091,5.822q5.875,3.342,11.984,6.216a24.905,24.905,0,0,0,.2-3.672c0-.915-.075-2.32-.937-2.863a18.8,18.8,0,0,0-3.81-1.139,59.96,59.96,0,0,1-7.674-3.108A38.176,38.176,0,0,1,482.3,618.943Z" transform="translate(-25.406 -142.576)" fill="#fbbebe"/>
    <ellipse id="Ellipse_32" data-name="Ellipse 32" cx="9.068" cy="9.121" rx="9.068" ry="9.121" transform="translate(470.077 429.368)" fill="#fbbebe"/>
    <path id="Path_175" data-name="Path 175" d="M515.281,600.25a14.536,14.536,0,0,0-1.756,3.289c-1.064,2.3-2.874,4.257-3.757,6.694s-.894,5.566-2.714,7.556a2.649,2.649,0,0,0-.8,1.149,5.485,5.485,0,0,1-.085.83c-.266.724-1.447.756-1.671,1.5-.064.213,0,.447-.106.66-.181.479-.819.553-1.235.841-.883.6-.7,1.98-1.33,2.842a2.4,2.4,0,0,1-2.267.8,7.984,7.984,0,0,1-2.352-.883,2.269,2.269,0,0,0-.852-.266,1.756,1.756,0,0,0-.979.341,6.035,6.035,0,0,0-2.448,5.162,16.858,16.858,0,0,0,1.4,5.779,2.32,2.32,0,0,0,.458.862,2.033,2.033,0,0,0,2.256.17,10.643,10.643,0,0,1,2.2-.99c1.4-.255,2.778.713,4.2.628a5.843,5.843,0,0,0,2.831-1.245,15.644,15.644,0,0,0,3.81-3.193c.617-.82,1.064-1.745,1.618-2.618A33.594,33.594,0,0,1,514,627.1l5.236-6.386a14.714,14.714,0,0,0,1.4-1.937,13.648,13.648,0,0,0,1.064-2.927,22.42,22.42,0,0,0,1.064-5.2,20,20,0,0,0-.383-4.364,15.424,15.424,0,0,0-1.064-4.161C520.187,599.718,517.42,597.759,515.281,600.25Z" transform="translate(-23.651 -143.455)" fill="#2f2e41"/>
    <path id="Path_176" data-name="Path 176" d="M533.808,590.788a10.217,10.217,0,0,0-4.193-8.3A12.144,12.144,0,0,0,519.3,570.662a11.782,11.782,0,0,0-23.212.628c-3.768-.851-7.216.255-7.844,2.576s2.033,5.321,6,6.386a11.183,11.183,0,0,0,3.853.383,11.792,11.792,0,0,0,8.11,5.055,12.1,12.1,0,0,0,8.855,9.132A10.164,10.164,0,0,0,517.8,598.6v.883a7.674,7.674,0,1,0,15.347,0,8.193,8.193,0,0,0-.734-3.4A10.259,10.259,0,0,0,533.808,590.788Z" transform="translate(-23.958 -145.891)" fill="#202020"/>
    <path id="Path_177" data-name="Path 177" d="M490.8,574.355c.628-2.32,4.076-3.427,7.844-2.576a11.984,11.984,0,0,1,11.707-10.089h.777a11.536,11.536,0,0,0-3.342-.5,11.984,11.984,0,0,0-11.707,10.089c-3.768-.851-7.216.255-7.844,2.576s2.033,5.321,6,6.386a11.707,11.707,0,0,0,2.278.394C492.716,579.5,490.173,576.729,490.8,574.355Z" transform="translate(-23.959 -145.892)" opacity="0.1"/>
    <path id="Path_178" data-name="Path 178" d="M519.7,598.732a7.989,7.989,0,0,1,0-.873,9.94,9.94,0,0,1-2.735-3.778,12.069,12.069,0,0,1-8.855-9.142,11.76,11.76,0,0,1-8.121-5.045,10.208,10.208,0,0,1-2.267-.064,11.824,11.824,0,0,0,7.823,4.651,12.1,12.1,0,0,0,8.855,9.132,10.164,10.164,0,0,0,2.735,3.778v.883a7.812,7.812,0,0,0,7.631,7.94A7.94,7.94,0,0,1,519.7,598.732Z" transform="translate(-23.343 -144.693)" opacity="0.1"/>
    <ellipse id="Ellipse_33" data-name="Ellipse 33" cx="1.394" cy="1.863" rx="1.394" ry="1.863" transform="translate(479.942 439.714) rotate(-37.22)" fill="#fbbebe"/>
  </g>
</svg>
