<svg xmlns="http://www.w3.org/2000/svg" width="266.904" height="185.642" viewBox="0 0 266.904 185.642">
  <g id="Group_32" data-name="Group 32" transform="translate(0 -29.552)">
    <path id="Path_208" data-name="Path 208" d="M550.791,669.612a12.544,12.544,0,0,0-7.485-5.183,36.457,36.457,0,0,0-8.339-.491l-35.2.271a5.766,5.766,0,1,0,0,11.531L530.7,675.5c2.431-.019,4.864-.063,7.3-.055.546,0,1.09.031,1.635.037.132,0,.228,0,.295,0l.053.016c.285.078.576.132.863.206-.1,0,.186.181.329.242.02.039.062.108.132.214.1.184.388.742.4.724a25.85,25.85,0,0,1,1.076,3.385,18.957,18.957,0,0,1,.914,5.453c.122,3.01,2.565,5.909,5.766,5.766,3.019-.135,5.9-2.538,5.766-5.766C555,680.284,554.048,674.174,550.791,669.612Z" transform="translate(-398.741 -479.236)" fill="#e6e6e6"/>
    <path id="Path_209" data-name="Path 209" d="M444.283,536.465c-.661-4.007-1.31-8.016-1.984-12.021-.684-4.063-2.081-7.783-5.242-10.449-.845-.712-1.721-1.378-2.6-2.041-.309-.233-.618-.466-.924-.7l-.046-.036-.128-.109c-1.318-1.115-2.591-2.28-3.8-3.518q-1.615-1.649-3.09-3.44-.368-.447-.727-.9l-.409-.526c-.136-.187-.384-.525-.426-.584q-.419-.593-.824-1.2a56.265,56.265,0,0,1-4.752-8.69q-.2-.451-.385-.907l-.135-.371c-.267-.735-.534-1.468-.778-2.211q-.778-2.368-1.338-4.806-.277-1.2-.5-2.42-.114-.625-.214-1.253c-.011-.069-.076-.521-.114-.776s-.081-.71-.088-.781q-.063-.633-.112-1.267-.111-1.427-.15-2.859-.067-2.545.091-5.089c.06-.953.145-1.9.25-2.852l.016-.146c.006-.042.014-.09.023-.15.078-.524.159-1.048.251-1.57a57.406,57.406,0,0,1,1.347-5.879q.392-1.372.851-2.723.2-.6.423-1.194c-.009.026.426-1.087.432-1.124,1.728-4.082,4.554-7.8,4.558-12.442,0-3.14-2.654-6.148-5.766-6a5.991,5.991,0,0,0-5.766,6c0,.071,0,.131,0,.189l-.075.251c-.337.732-.75,1.428-1.12,2.142-1.013,1.954-1.877,3.973-2.7,6.021a57.6,57.6,0,0,0-3.074,10.316,65.62,65.62,0,0,0-.349,23.437,60.481,60.481,0,0,0,19.856,35.437c.889.761,1.8,1.5,2.72,2.216.381.3.764.591,1.15.881.182.137.937.733.605.444a3.673,3.673,0,0,1,1.2,1.366l.112.436c.129.506.252,1.012.354,1.525.892,4.487,1.512,9.049,2.257,13.565.512,3.1,4.332,5.122,7.092,4.192C443.469,542.766,444.831,539.789,444.283,536.465Z" transform="translate(-341.191 -333.078)" fill="#e6e6e6"/>
    <path id="Path_210" data-name="Path 210" d="M484.606,491.067a9.144,9.144,0,0,1-9.167-9.1v-6.577c-6.886.771-30.465.592-37.224-.494V481.7a9.168,9.168,0,1,1-18.335,0V468.339A58.809,58.809,0,0,1,444.124,358.4c1.6-.125,3.2-.188,4.771-.188,5.532,0,30.493.855,36.755,2.656l14.28-14.17a1.5,1.5,0,0,1,1.64-.327,1.477,1.477,0,0,1,.931,1.386v2.253l2.781-2.754a1.5,1.5,0,0,1,1.638-.327,1.478,1.478,0,0,1,.932,1.387v25.176a58.651,58.651,0,0,1-14.079,96.526v11.953A9.144,9.144,0,0,1,484.606,491.067Zm-8.447-16.493v7.394a8.447,8.447,0,1,0,16.893,0V469.56l.206-.1A58.541,58.541,0,0,0,517.233,448.5a57.773,57.773,0,0,0-9.981-74.578l-.12-.108v-25.5a.758.758,0,0,0-.484-.719.774.774,0,0,0-.858.171l-4.01,3.971v-3.981a.758.758,0,0,0-.484-.719.776.776,0,0,0-.86.172L485.851,361.68l-.207-.065c-5.822-1.822-31.175-2.686-36.749-2.686-1.552,0-3.138.063-4.714.186a58.4,58.4,0,0,0-31.8,12.521,57.83,57.83,0,0,0,8.03,96.175l.186.1V481.7a8.447,8.447,0,1,0,16.894,0v-7.67l.427.08c6.074,1.143,31.65,1.323,37.832.512Z" transform="translate(-331.972 -276.042)" fill="#3f3d56"/>
    <path id="Path_213" data-name="Path 213" d="M537.015,233.42A25.236,25.236,0,0,0,511.8,257.87c-.007.256-.011.515-.011.775a25.225,25.225,0,1,0,25.225-25.225Zm0,49.729a24.53,24.53,0,0,1-24.5-24.5q0-.5.022-.995a24.5,24.5,0,1,1,24.482,25.5Z" transform="translate(-410.125 -203.868)" fill="#3f3d56"/>
    <path id="Path_214" data-name="Path 214" d="M565.312,265.68a21.261,21.261,0,1,1-42.522,0c0-.674.032-1.337.094-1.993a21.261,21.261,0,0,1,42.428,1.993Z" transform="translate(-417.161 -210.904)" fill="#e6e6e6"/>
    <path id="Path_215" data-name="Path 215" d="M575.456,282.49a5.062,5.062,0,0,0-1.971-1.56,19.147,19.147,0,0,0-2.962-.973v-5.787a8.43,8.43,0,0,1,4.212,1.921l1.175-2.5a7.77,7.77,0,0,0-2.292-1.416,11.264,11.264,0,0,0-2.908-.746V268.49H567.99v2.962a7.449,7.449,0,0,0-2.973,1A5.91,5.91,0,0,0,563,274.425a4.962,4.962,0,0,0-.717,2.627,4.491,4.491,0,0,0,.825,2.811,5.228,5.228,0,0,0,2.054,1.629,18.987,18.987,0,0,0,3.013,1v5.546a9,9,0,0,1-5.013-2l-1.175,2.508a8.858,8.858,0,0,0,2.681,1.521,12.311,12.311,0,0,0,3.319.692v2.908h2.721V290.7a7.041,7.041,0,0,0,4.04-1.852,4.9,4.9,0,0,0,1.506-3.64A4.344,4.344,0,0,0,575.456,282.49Zm-7.279-3.146a5.224,5.224,0,0,1-1.813-.973,1.917,1.917,0,0,1-.641-1.506,2.424,2.424,0,0,1,.656-1.733,3.316,3.316,0,0,1,1.8-.933Zm4.054,7.668a3.083,3.083,0,0,1-1.708.89v-4.771a4.771,4.771,0,0,1,1.708.854,1.679,1.679,0,0,1,.587,1.333,2.452,2.452,0,0,1-.588,1.694Z" transform="translate(-442.235 -226.301)" fill="#1a4fd6"/>
    <path id="Path_217" data-name="Path 217" d="M349.495,439.225a35.352,35.352,0,0,1-14.1-5.33,34.425,34.425,0,0,1-5.828-4.767,17.882,17.882,0,0,1-4.266-6.155,9.116,9.116,0,0,1,.119-6.764,8.769,8.769,0,0,1,4.745-4.73,9.053,9.053,0,0,1,6.867-.01,6.158,6.158,0,0,1,2.51,2.02,4.12,4.12,0,0,1,.652,1.354,2.765,2.765,0,0,1,.033,1.355,3.249,3.249,0,0,1-1.72,2.062,8.673,8.673,0,0,1-2.938.9c-1.031.141-2.511.268-3.34-.559a1.682,1.682,0,0,1-.394-.58,1.122,1.122,0,0,1-.062-.525c-.012.078.05-.17.046-.16-.013.037-.07.126.011-.011a1.228,1.228,0,0,1,.084-.131c-.027.035-.087.095.02-.007a.707.707,0,0,1,.329-.2c.05-.014.1-.026.151-.04.127-.035-.127,0,0,0,.05,0,.1,0,.151,0,.128-.006-.126-.035,0,0,.047.012.094.024.141.038.1.032-.072-.075,0,.005s-.085-.091.007,0a1.662,1.662,0,0,1,.129.142.85.85,0,0,0,1.195,0,.865.865,0,0,0,0-1.195,2.289,2.289,0,0,0-3.321.1,2.747,2.747,0,0,0,.4,3.848,5.318,5.318,0,0,0,4.381.991,10.744,10.744,0,0,0,3.7-1.046,5.188,5.188,0,0,0,2.531-2.734,4.747,4.747,0,0,0-.381-3.881,8.373,8.373,0,0,0-6.877-4.046,10.743,10.743,0,0,0-7.862,2.581,10.866,10.866,0,0,0-3.563,7.234,12.39,12.39,0,0,0,2.508,8,30.5,30.5,0,0,0,6.047,6.253,36.925,36.925,0,0,0,15.427,7.276q1.006.208,2.023.356a.872.872,0,0,0,1.039-.59.851.851,0,0,0-.59-1.039Z" transform="translate(-289.371 -316.252)" fill="#3f3d56"/>
    <path id="Path_218" data-name="Path 218" d="M572.508,390.745q-11.049-.156-22.029.561c-2.5.163-4.667,1.048-4.667,2.534,0,1.243,2.148,2.7,4.667,2.534q10.974-.717,22.029-.561C578.516,395.9,578.513,390.829,572.508,390.745Z" transform="translate(-431.886 -304.483)" fill="#ccc"/>
    <path id="Path_219" data-name="Path 219" d="M555.073,394.886c-.8,0-19.5-.03-19.5-2.613s18.7-2.613,19.5-2.613,19.5.03,19.5,2.613S555.869,394.886,555.073,394.886Zm-18.766-2.613c.512.783,7.386,1.892,18.766,1.892s18.254-1.109,18.766-1.892c-.512-.783-7.386-1.892-18.766-1.892s-18.254,1.109-18.766,1.892Z" transform="translate(-425.34 -303.807)" fill="#3f3d56"/>
    <path id="Path_220" data-name="Path 220" d="M754.212,516.933c4.14-.115,9.292-.259,13.261-3.158a10.185,10.185,0,0,0,4.007-7.6,6.851,6.851,0,0,0-2.33-5.627c-2.073-1.752-5.1-2.163-8.363-1.2l3.38-24.7-2.481-.34-3.974,29.04,2.072-.951c2.4-1.1,5.7-1.663,7.749.069a4.4,4.4,0,0,1,1.443,3.626,7.7,7.7,0,0,1-2.982,5.67c-3.089,2.256-7.2,2.547-11.854,2.678Z" transform="translate(-565.145 -357.946)" fill="#3f3d56"/>
    <rect id="Rectangle_107" data-name="Rectangle 107" width="13.489" height="2.505" transform="translate(168.718 118.823)" fill="#3f3d56"/>
    <path id="Path_228" data-name="Path 228" d="M496.137,747.065H230.091a.429.429,0,1,1,0-.858H496.137a.429.429,0,1,1,0,.858Z" transform="translate(-229.662 -531.871)" fill="#3f3d56"/>
  </g>
</svg>
