<svg xmlns="http://www.w3.org/2000/svg" width="255.559" height="168.819" viewBox="0 0 255.559 168.819">
  <g id="Group_30" data-name="Group 30" transform="translate(0 4.645)">
    <path id="Path_193" data-name="Path 193" d="M288.932,320.465l-1.323-8.1-3.737-.934s-2.966-.913-3.659,5.06-.156,17.127-.156,17.127l-8.2,25.98a3.629,3.629,0,1,0,5.01,2.161l10.667-24.4Z" transform="translate(-244.169 -273.788)" fill="#ffb7b7"/>
    <path id="Path_194" data-name="Path 194" d="M400.743,296.324l-1.962-7.966,3.07-2.326s2.369-2,5.352,3.217,6.868,15.69,6.868,15.69l17.746,20.672a3.629,3.629,0,1,1-3.759,3.955L408.665,311.31Z" transform="translate(-333.258 -256.018)" fill="#ffb7b7"/>
    <path id="Path_195" data-name="Path 195" d="M267.687,487.779h4.45l2.117-17.164h-6.568Z" transform="translate(-184.866 -328.217)" fill="#ffb7b7"/>
    <path id="Path_196" data-name="Path 196" d="M451.02,700.9h8.764a5.585,5.585,0,0,1,5.585,5.585v.182H451.02Z" transform="translate(-369.334 -542.788)" fill="#2f2e41"/>
    <path id="Path_197" data-name="Path 197" d="M87.014,487.779h4.45l2.117-17.164H87.013Z" transform="translate(-60.092 -328.217)" fill="#ffb7b7"/>
    <path id="Path_198" data-name="Path 198" d="M270.347,700.9h8.764a5.585,5.585,0,0,1,5.585,5.585v.182H270.347Z" transform="translate(-244.56 -542.788)" fill="#2f2e41"/>
    <circle id="Ellipse_38" data-name="Ellipse 38" cx="12.036" cy="12.036" r="12.036" transform="translate(42.179 0.978)" fill="#2f2e41"/>
    <ellipse id="Ellipse_39" data-name="Ellipse 39" cx="4.98" cy="3.735" rx="4.98" ry="3.735" transform="translate(36.016 4.763) rotate(-45)" fill="#2f2e41"/>
    <ellipse id="Ellipse_40" data-name="Ellipse 40" cx="3.735" cy="4.98" rx="3.735" ry="4.98" transform="translate(56.133 2.225) rotate(-66.869)" fill="#2f2e41"/>
    <circle id="Ellipse_41" data-name="Ellipse 41" cx="10.215" cy="10.215" r="10.215" transform="translate(40.734 19.951) rotate(-61.337)" fill="#ffb7b7"/>
    <path id="Path_199" data-name="Path 199" d="M328.772,208.241a13.893,13.893,0,0,0,7.94,2.454,8.513,8.513,0,0,1-3.374,1.388,28.014,28.014,0,0,0,11.443.064,7.407,7.407,0,0,0,2.4-.823,3.032,3.032,0,0,0,1.479-1.977c.251-1.434-.866-2.737-2.028-3.615a14.959,14.959,0,0,0-12.57-2.512,6.883,6.883,0,0,0-3.723,2.1,3.391,3.391,0,0,0-.313,4.027Z" transform="translate(-284.909 -198.779)" fill="#2f2e41"/>
    <path id="Path_200" data-name="Path 200" d="M273.065,281.779l-10.11,8.257,8.834,21.063.168,3.37s-9.17,8.455-14.844,32.074-17.134,55-17.134,55l22.926,5.609,15.94-53.429,20.32,41.917,2.891,12.4,17.722-4.92-6.84-33.271-16.775-51.645,1.378-14.267a15.775,15.775,0,0,0-2.263-14.661l-1.673-7.085-8.659-1.476Z" transform="translate(-223.587 -252.609)" fill="#2f2e41"/>
    <path id="Path_201" data-name="Path 201" d="M735.016,464.135H664.824a2.117,2.117,0,0,1-2.114-2.114V438.341a2.117,2.117,0,0,1,2.114-2.114h70.193a2.117,2.117,0,0,1,2.114,2.114v23.679A2.117,2.117,0,0,1,735.016,464.135Z" transform="translate(-515.528 -360.005)" fill="#e5e5e5"/>
    <rect id="Rectangle_104" data-name="Rectangle 104" width="18.605" height="2.114" transform="translate(158.175 82.564)" fill="#fff"/>
    <circle id="Ellipse_42" data-name="Ellipse 42" cx="1.269" cy="1.269" r="1.269" transform="translate(200.037 82.564)" fill="#1a4fd6"/>
    <circle id="Ellipse_43" data-name="Ellipse 43" cx="1.269" cy="1.269" r="1.269" transform="translate(204.266 82.564)" fill="#1a4fd6"/>
    <circle id="Ellipse_44" data-name="Ellipse 44" cx="1.269" cy="1.269" r="1.269" transform="translate(208.494 82.564)" fill="#1a4fd6"/>
    <path id="Path_202" data-name="Path 202" d="M735.016,561.171H664.824a2.117,2.117,0,0,1-2.114-2.114V535.377a2.117,2.117,0,0,1,2.114-2.114h70.193a2.117,2.117,0,0,1,2.114,2.114v23.679A2.117,2.117,0,0,1,735.016,561.171Z" transform="translate(-515.528 -427.019)" fill="#e5e5e5"/>
    <rect id="Rectangle_105" data-name="Rectangle 105" width="18.605" height="2.114" transform="translate(158.175 112.586)" fill="#fff"/>
    <circle id="Ellipse_45" data-name="Ellipse 45" cx="1.269" cy="1.269" r="1.269" transform="translate(200.037 112.586)" fill="#1a4fd6"/>
    <circle id="Ellipse_46" data-name="Ellipse 46" cx="1.269" cy="1.269" r="1.269" transform="translate(204.266 112.586)" fill="#1a4fd6"/>
    <circle id="Ellipse_47" data-name="Ellipse 47" cx="1.269" cy="1.269" r="1.269" transform="translate(208.494 112.586)" fill="#1a4fd6"/>
    <path id="Path_203" data-name="Path 203" d="M735.016,658.206H664.824a2.117,2.117,0,0,1-2.114-2.114V632.412a2.117,2.117,0,0,1,2.114-2.114h70.193a2.117,2.117,0,0,1,2.114,2.114v23.679A2.117,2.117,0,0,1,735.016,658.206Z" transform="translate(-515.528 -494.032)" fill="#e5e5e5"/>
    <rect id="Rectangle_106" data-name="Rectangle 106" width="18.605" height="2.114" transform="translate(158.175 142.609)" fill="#fff"/>
    <circle id="Ellipse_48" data-name="Ellipse 48" cx="1.269" cy="1.269" r="1.269" transform="translate(200.037 142.609)" fill="#1a4fd6"/>
    <circle id="Ellipse_49" data-name="Ellipse 49" cx="1.269" cy="1.269" r="1.269" transform="translate(204.266 142.609)" fill="#1a4fd6"/>
    <circle id="Ellipse_50" data-name="Ellipse 50" cx="1.269" cy="1.269" r="1.269" transform="translate(208.494 142.609)" fill="#1a4fd6"/>
    <path id="Path_204" data-name="Path 204" d="M532.8,362.88a15.981,15.981,0,0,1-3.962-.512l-.255-.071-.237-.119A65.636,65.636,0,0,1,506.9,345.341a63.74,63.74,0,0,1-10.83-19.231,74.017,74.017,0,0,1-4.186-26.074c0-.186.007-.33.007-.429a10.267,10.267,0,0,1,6.1-9.64c2.835-1.181,28.58-11.756,30.44-12.52a9.885,9.885,0,0,1,7.838-.034c1.341.548,25.141,10.283,30.284,12.732,5.3,2.524,6.715,7.058,6.715,9.34a76.057,76.057,0,0,1-5.316,28.689,66.431,66.431,0,0,1-11.938,19.239c-9.745,10.967-19.493,14.855-19.587,14.889A10.651,10.651,0,0,1,532.8,362.88Zm-2.293-5.678a8.48,8.48,0,0,0,4.059.011c1.611-.588,9.77-4.818,17.394-13.4,10.534-11.854,15.879-26.756,15.887-44.292-.019-.355-.271-2.889-3.627-4.487-5.043-2.4-29.781-12.517-30.03-12.619l-.068-.029a4.482,4.482,0,0,0-3.305-.079l-.228.106c-.276.113-27.6,11.338-30.519,12.552a4.863,4.863,0,0,0-2.765,4.64c0,.123,0,.3-.008.534C497.066,312.14,499.843,341.665,530.509,357.2Z" transform="translate(-397.544 -249.764)" fill="#3f3d56"/>
    <path id="Path_205" data-name="Path 205" d="M535.6,285.962s-27.577,11.326-30.531,12.557a7.526,7.526,0,0,0-4.432,7.14c0,2.955-2.216,41.509,34.963,60.15a11.473,11.473,0,0,0,5.934,0c2.56-.934,35.061-16.692,35.061-60.273,0,0,0-4.432-5.171-6.894s-30.17-12.681-30.17-12.681S538.185,284.607,535.6,285.962Z" transform="translate(-403.582 -255.815)" fill="#1a4fd6"/>
    <path id="Path_206" data-name="Path 206" d="M623.248,315.954v60.421s27.823-13.393,27.577-48.6Z" transform="translate(-488.276 -276.944)" opacity="0.2"/>
    <path id="Path_207" data-name="Path 207" d="M442.249,719.119H187.309a.309.309,0,0,1,0-.619h254.94a.309.309,0,0,1,0,.619Z" transform="translate(-187 -554.945)" fill="#cbcbcb"/>
  </g>
</svg>
